<mxfile host="Electron" modified="2023-09-23T14:34:32.086Z" agent="Mozilla/5.0 (X11; Linux x86_64) AppleWebKit/537.36 (KHTML, like Gecko) draw.io/21.3.7 Chrome/112.0.5615.204 Electron/24.5.0 Safari/537.36" etag="o1X_HvZZZ8syIO0bamjl" version="21.3.7" type="device">
  <diagram id="xCSzRPZr-ixNfz0lkktr" name="Page-1">
    <mxGraphModel dx="880" dy="1651" grid="1" gridSize="10" guides="1" tooltips="1" connect="1" arrows="1" fold="1" page="1" pageScale="1" pageWidth="850" pageHeight="1100" math="0" shadow="0">
      <root>
        <mxCell id="0" />
        <mxCell id="1" parent="0" />
        <mxCell id="cU6j0YdKlT9-EKyONLlR-4" style="edgeStyle=orthogonalEdgeStyle;rounded=0;orthogonalLoop=1;jettySize=auto;html=1;exitX=0.5;exitY=1;exitDx=0;exitDy=0;entryX=0.5;entryY=0;entryDx=0;entryDy=0;" parent="1" source="cU6j0YdKlT9-EKyONLlR-1" target="cU6j0YdKlT9-EKyONLlR-3" edge="1">
          <mxGeometry relative="1" as="geometry" />
        </mxCell>
        <mxCell id="cU6j0YdKlT9-EKyONLlR-5" style="edgeStyle=orthogonalEdgeStyle;rounded=0;orthogonalLoop=1;jettySize=auto;html=1;exitX=0.5;exitY=1;exitDx=0;exitDy=0;entryX=0.5;entryY=0;entryDx=0;entryDy=0;" parent="1" source="cU6j0YdKlT9-EKyONLlR-1" target="cU6j0YdKlT9-EKyONLlR-2" edge="1">
          <mxGeometry relative="1" as="geometry" />
        </mxCell>
        <mxCell id="cU6j0YdKlT9-EKyONLlR-1" value="&lt;h1&gt;&lt;u&gt;Heading 1&lt;/u&gt;&lt;/h1&gt;" style="text;html=1;strokeColor=none;fillColor=none;spacing=5;spacingTop=-20;whiteSpace=wrap;overflow=hidden;rounded=0;" parent="1" vertex="1">
          <mxGeometry x="525" width="130" height="35" as="geometry" />
        </mxCell>
        <mxCell id="cU6j0YdKlT9-EKyONLlR-10" style="edgeStyle=orthogonalEdgeStyle;rounded=0;orthogonalLoop=1;jettySize=auto;html=1;exitX=0.5;exitY=1;exitDx=0;exitDy=0;" parent="1" source="cU6j0YdKlT9-EKyONLlR-2" target="cU6j0YdKlT9-EKyONLlR-6" edge="1">
          <mxGeometry relative="1" as="geometry" />
        </mxCell>
        <mxCell id="cU6j0YdKlT9-EKyONLlR-11" style="edgeStyle=orthogonalEdgeStyle;rounded=0;orthogonalLoop=1;jettySize=auto;html=1;exitX=0.5;exitY=1;exitDx=0;exitDy=0;" parent="1" source="cU6j0YdKlT9-EKyONLlR-2" target="cU6j0YdKlT9-EKyONLlR-7" edge="1">
          <mxGeometry relative="1" as="geometry" />
        </mxCell>
        <mxCell id="cU6j0YdKlT9-EKyONLlR-2" value="&lt;h1&gt;&lt;span style=&quot;font-size: 20px;&quot;&gt;Heading 1.1&lt;/span&gt;&lt;/h1&gt;" style="text;html=1;strokeColor=none;fillColor=none;spacing=5;spacingTop=-20;whiteSpace=wrap;overflow=hidden;rounded=0;" parent="1" vertex="1">
          <mxGeometry x="400" y="80" width="190" height="40" as="geometry" />
        </mxCell>
        <mxCell id="cU6j0YdKlT9-EKyONLlR-12" style="edgeStyle=orthogonalEdgeStyle;rounded=0;orthogonalLoop=1;jettySize=auto;html=1;exitX=0.5;exitY=1;exitDx=0;exitDy=0;entryX=0.5;entryY=0;entryDx=0;entryDy=0;" parent="1" source="cU6j0YdKlT9-EKyONLlR-3" target="cU6j0YdKlT9-EKyONLlR-8" edge="1">
          <mxGeometry relative="1" as="geometry">
            <Array as="points">
              <mxPoint x="695" y="170" />
            </Array>
          </mxGeometry>
        </mxCell>
        <mxCell id="cU6j0YdKlT9-EKyONLlR-3" value="&lt;h1&gt;&lt;font style=&quot;font-size: 20px&quot;&gt;Heading 1.2&lt;/font&gt;&lt;/h1&gt;" style="text;html=1;strokeColor=none;fillColor=none;spacing=5;spacingTop=-20;whiteSpace=wrap;overflow=hidden;rounded=0;" parent="1" vertex="1">
          <mxGeometry x="600" y="80" width="190" height="40" as="geometry" />
        </mxCell>
        <mxCell id="cU6j0YdKlT9-EKyONLlR-6" value="Heading 1.1.1" style="text;html=1;strokeColor=none;fillColor=none;align=center;verticalAlign=middle;whiteSpace=wrap;rounded=0;" parent="1" vertex="1">
          <mxGeometry x="400" y="170" width="80" height="30" as="geometry" />
        </mxCell>
        <mxCell id="cU6j0YdKlT9-EKyONLlR-7" value="Heading 1.1.2" style="text;html=1;strokeColor=none;fillColor=none;align=center;verticalAlign=middle;whiteSpace=wrap;rounded=0;" parent="1" vertex="1">
          <mxGeometry x="500" y="170" width="80" height="30" as="geometry" />
        </mxCell>
        <mxCell id="cU6j0YdKlT9-EKyONLlR-8" value="Heading 1.2.1" style="text;html=1;strokeColor=none;fillColor=none;align=center;verticalAlign=middle;whiteSpace=wrap;rounded=0;" parent="1" vertex="1">
          <mxGeometry x="655" y="170" width="80" height="30" as="geometry" />
        </mxCell>
        <mxCell id="cU6j0YdKlT9-EKyONLlR-15" value="" style="endArrow=none;dashed=1;html=1;rounded=0;exitX=0;exitY=1;exitDx=0;exitDy=0;" parent="1" edge="1" source="cU6j0YdKlT9-EKyONLlR-6">
          <mxGeometry width="50" height="50" relative="1" as="geometry">
            <mxPoint x="400" y="320" as="sourcePoint" />
            <mxPoint x="400" as="targetPoint" />
          </mxGeometry>
        </mxCell>
        <mxCell id="cU6j0YdKlT9-EKyONLlR-18" value="&lt;h1 style=&quot;font-size: 15px&quot;&gt;&lt;span style=&quot;font-weight: 400;&quot;&gt;Heading 1.1&lt;/span&gt;&lt;/h1&gt;" style="text;html=1;strokeColor=none;fillColor=none;spacing=5;spacingTop=-20;whiteSpace=wrap;overflow=hidden;rounded=0;fontSize=15;fontStyle=0;align=left;" parent="1" vertex="1">
          <mxGeometry x="220" y="10" width="130" height="40" as="geometry" />
        </mxCell>
        <mxCell id="cU6j0YdKlT9-EKyONLlR-19" value="&lt;h1 style=&quot;font-size: 15px&quot;&gt;&lt;span style=&quot;font-weight: 400;&quot;&gt;Heading 1.2&lt;/span&gt;&lt;/h1&gt;" style="text;html=1;strokeColor=none;fillColor=none;spacing=5;spacingTop=-20;whiteSpace=wrap;overflow=hidden;rounded=0;fontSize=15;fontStyle=0" parent="1" vertex="1">
          <mxGeometry x="230" y="120" width="130" height="40" as="geometry" />
        </mxCell>
        <mxCell id="cU6j0YdKlT9-EKyONLlR-20" value="Heading 1.1.1" style="text;html=1;strokeColor=none;fillColor=none;align=center;verticalAlign=middle;whiteSpace=wrap;rounded=0;fontSize=15;fontStyle=0" parent="1" vertex="1">
          <mxGeometry x="320" width="80" height="40" as="geometry" />
        </mxCell>
        <mxCell id="cU6j0YdKlT9-EKyONLlR-21" value="Heading 1.1.2" style="text;html=1;strokeColor=none;fillColor=none;align=center;verticalAlign=middle;whiteSpace=wrap;rounded=0;fontSize=15;" parent="1" vertex="1">
          <mxGeometry x="320" y="40" width="80" height="40" as="geometry" />
        </mxCell>
        <mxCell id="cU6j0YdKlT9-EKyONLlR-22" value="Heading 1.2.1" style="text;html=1;strokeColor=none;fillColor=none;align=center;verticalAlign=middle;whiteSpace=wrap;rounded=0;fontSize=15;fontStyle=0" parent="1" vertex="1">
          <mxGeometry x="320" y="120" width="80" height="40" as="geometry" />
        </mxCell>
        <mxCell id="N16ldbYojmI8ki2_2Bgt-6" value="&lt;h1&gt;&lt;u&gt;Heading 1&lt;/u&gt;&lt;/h1&gt;" style="text;html=1;strokeColor=none;fillColor=none;spacing=5;spacingTop=-20;whiteSpace=wrap;overflow=hidden;rounded=0;" vertex="1" parent="1">
          <mxGeometry x="80" width="140" height="35" as="geometry" />
        </mxCell>
      </root>
    </mxGraphModel>
  </diagram>
</mxfile>
